Coordinates
version=1
nRows=13
nColumns=40
inDegrees=yes

Units are S.I. units (second, meters, Newtons, ...)
Angles are in degrees.

endheader
time	pelvis_tilt	pelvis_list	pelvis_rotation	pelvis_tx	pelvis_ty	pelvis_tz	hip_flexion_r	hip_adduction_r	hip_rotation_r	knee_angle_r	knee_angle_r_beta	ankle_angle_r	subtalar_angle_r	mtp_angle_r	hip_flexion_l	hip_adduction_l	hip_rotation_l	knee_angle_l	knee_angle_l_beta	ankle_angle_l	subtalar_angle_l	mtp_angle_l	lumbar_extension	lumbar_bending	lumbar_rotation	arm_flex_r	arm_add_r	arm_rot_r	elbow_flex_r	pro_sup_r	wrist_flex_r	wrist_dev_r	arm_flex_l	arm_add_l	arm_rot_l	elbow_flex_l	pro_sup_l	wrist_flex_l	wrist_dev_l
     25.75000000	     -4.04112684	     -3.44872342	      5.08593036	      0.90545151	      0.92791389	      0.39951951	     22.44682320	     -8.55993558	     -6.86724073	     60.95994838	     60.95994838	      4.03251465	    -12.02162361	     -1.66954288	     17.99132118	     -4.02951071	     -2.51232996	     24.92405035	     24.92405035	     13.06973659	    -11.77620442	      2.99431628	     -9.42635941	      3.98566703	      5.18800067	     16.63883742	    -14.53061588	     -2.06467923	     51.06511140	     46.27800742	      0.00000000	      0.00000000	     14.99569313	    -30.99772953	    -19.45855990	     40.49452061	     46.81105235	      0.00000000	      0.00000000
     25.76300000	     -4.15326385	     -3.58175520	      4.62228600	      0.90473705	      0.92813639	      0.39988395	     23.96777175	     -8.40975502	     -6.66255897	     61.57613916	     61.57613916	      3.96209107	    -13.23140734	     -1.41132232	     17.59568009	     -4.22574331	     -2.59809074	     24.69761881	     24.69761881	     13.28633668	    -12.13594536	      3.06914880	     -9.51619563	      4.18307855	      5.50034737	     15.09996070	    -14.76047234	     -2.29629410	     49.06119566	     46.33824291	      0.00000000	      0.00000000	     15.90736574	    -31.74213844	    -19.69299632	     41.32222722	     46.87060956	      0.00000000	      0.00000000
     25.77600000	     -4.25975739	     -3.64923662	      4.16546608	      0.90399337	      0.92838417	      0.40023768	     25.45011908	     -8.29040796	     -6.43033010	     62.09167183	     62.09167183	      3.90781279	    -14.36520481	     -1.04787098	     17.16436558	     -4.36354850	     -2.78561986	     24.42027120	     24.42027120	     13.45598840	    -12.37804662	      3.13257775	     -9.63138338	      4.31961116	      5.74866218	     13.71028948	    -14.90832578	     -2.67888683	     46.95672655	     46.41372849	      0.00000000	      0.00000000	     16.69251464	    -32.60133165	    -19.93904390	     42.21077456	     46.92748861	      0.00000000	      0.00000000
     25.78900000	     -4.28023087	     -3.79722617	      3.72186506	      0.90332137	      0.92876416	      0.40066092	     26.74125097	     -8.08517613	     -6.33757774	     62.36460195	     62.36460195	      3.98543570	    -15.16799175	     -0.34919938	     16.66025066	     -4.58799949	     -2.92629596	     24.17893264	     24.17893264	     13.65058327	    -12.65868263	      3.16442775	     -9.80721403	      4.52714293	      6.13463131	     12.74992498	    -14.94824188	     -3.64901209	     43.55350331	     46.56060550	      0.00000000	      0.00000000	     17.46959747	    -33.36246450	    -20.17918836	     43.46154987	     46.99479467	      0.00000000	      0.00000000
     25.80200000	     -4.35263165	     -3.89556855	      3.28881262	      0.90264062	      0.92912694	      0.40116666	     28.03430109	     -7.93234912	     -6.27456693	     62.46751058	     62.46751058	      4.46008560	    -15.42045758	      1.15323261	     16.17197016	     -4.77150659	     -3.15032894	     23.84671902	     23.84671902	     13.78899080	    -12.81451858	      3.13232209	     -9.91643681	      4.69558349	      5.51940742	     13.29193528	    -13.97193464	     -6.70867876	     38.11928868	     46.84347406	      0.00000000	      0.00000000	     16.98979887	    -34.77720865	    -20.71123189	     44.63754238	     47.12375743	      0.00000000	      0.00000000
     25.81500000	     -4.41192175	     -4.03592062	      2.86448110	      0.90188911	      0.92944512	      0.40175035	     29.17287311	     -7.73835568	     -6.32897817	     62.16553218	     62.16553218	      4.53173917	    -15.56036778	      1.18585514	     15.71916058	     -5.00491991	     -3.37302402	     23.59325933	     23.59325933	     13.98025392	    -12.95845116	      3.16488793	    -10.14620516	      4.95502505	      5.39694532	     12.00461853	    -14.27398536	     -6.82325243	     37.44395163	     46.86472237	      0.00000000	      0.00000000	     17.32218880	    -35.96075079	    -21.00296284	     44.89283441	     47.16443179	      0.00000000	      0.00000000
     25.82800000	     -4.52415400	     -4.12964947	      2.36667145	      0.90110948	      0.92991125	      0.40258568	     30.31563750	     -7.39740711	     -6.17872101	     61.54546248	     61.54546248	      4.74448824	    -15.76326712	      2.01289582	     15.18340536	     -5.20805366	     -3.72719294	     23.08971084	     23.08971084	     14.01089697	    -13.00891316	      3.01744776	    -10.24660403	      5.08276199	      5.64759405	     12.07605181	    -14.10173422	     -9.56881057	     32.46946589	     47.13176619	      0.00000000	      0.00000000	     17.67409756	    -36.73482555	    -21.19249045	     46.29108696	     47.27137933	      0.00000000	      0.00000000
     25.84100000	     -4.66712899	     -4.24741757	      1.93080300	      0.90024709	      0.93021654	      0.40351208	     31.33703362	     -7.10598718	     -6.25130494	     60.53167272	     60.53167272	      4.88427356	    -15.57991112	      2.03871678	     14.80358305	     -5.43614652	     -4.02427704	     22.78564646	     22.78564646	     14.12609894	    -13.12219972	      3.07876379	    -10.42604500	      5.29920843	      5.55596299	     10.90523481	    -14.49461278	     -9.71503342	     31.90719054	     47.15273162	      0.00000000	      0.00000000	     17.91771207	    -37.90844119	    -21.47980803	     46.46862051	     47.30873558	      0.00000000	      0.00000000
     25.85400000	     -4.69445424	     -4.36670579	      1.44636025	      0.89958635	      0.93091977	      0.40458104	     32.05782097	     -6.71238959	     -6.28811416	     59.05556828	     59.05556828	      4.95271418	    -15.25768521	      2.01740082	     14.06852746	     -5.67455275	     -4.41789819	     22.09715430	     22.09715430	     14.22280342	    -12.95957537	      3.10473162	    -10.67170434	      5.47373991	      5.86188660	      9.82404067	    -15.03220763	    -10.19439936	     30.53486146	     47.22021622	      0.00000000	      0.00000000	     18.41596676	    -38.53091031	    -21.60003125	     47.19347907	     47.34598955	      0.00000000	      0.00000000
     25.86700000	     -4.92034455	     -4.44039960	      1.02437036	      0.89870964	      0.93110014	      0.40577406	     32.92142975	     -6.37311855	     -6.38506282	     57.32845711	     57.32845711	      5.14468706	    -14.77430911	      2.03385538	     13.77208613	     -5.86722300	     -4.75059181	     21.78575020	     21.78575020	     14.29371860	    -13.01029253	      3.12883786	    -10.72794228	      5.62675280	      5.76884590	      8.77623099	    -15.47347824	    -10.40654206	     29.88969824	     47.25071846	      0.00000000	      0.00000000	     18.60841533	    -39.63458895	    -21.81981334	     47.32771069	     47.37607042	      0.00000000	      0.00000000
     25.88000000	     -5.13755750	     -4.51389354	      0.61717104	      0.89793071	      0.93135531	      0.40709504	     33.57740302	     -6.00981265	     -6.57095132	     55.17227294	     55.17227294	      5.37028191	    -14.14149644	      2.05294935	     13.39554302	     -6.06370470	     -5.11440686	     21.34865283	     21.34865283	     14.35490334	    -12.96646334	      3.15267479	    -10.79078337	      5.77512098	      5.70041032	      7.77627804	    -15.96418896	    -10.63707265	     29.21598141	     47.28480102	      0.00000000	      0.00000000	     18.75002855	    -40.60810800	    -21.98365727	     47.44797941	     47.40001630	      0.00000000	      0.00000000
     25.89300000	     -5.14546180	     -4.62186515	      0.24590339	      0.89755023	      0.93202542	      0.40849208	     33.60754366	     -5.65192022	     -7.01339137	     52.28694412	     52.28694412	      4.68703135	    -13.62061608	     -0.90486285	     12.53154421	     -6.31654411	     -5.65700223	     20.45524559	     20.45524559	     14.09346130	    -12.57361778	      2.21102191	    -11.01642863	      5.98367419	      5.96793926	      8.38850120	    -15.50297237	    -19.61149533	     24.71506554	     47.89125684	      0.00000000	      0.00000000	     19.05729551	    -41.52035470	    -20.45688468	     47.69524779	     47.51718747	      0.00000000	      0.00000000
     25.90600000	     -5.32192693	     -4.68292580	     -0.09136002	      0.89709920	      0.93224172	      0.40996340	     33.78347229	     -5.29795297	     -7.44322405	     49.35679811	     49.35679811	      5.00053380	    -12.64945073	     -0.78133486	     12.04612020	     -6.49766737	     -6.01833298	     19.93507784	     19.93507784	     14.17475164	    -12.40192712	      2.22085912	    -11.08549463	      6.14088052	      5.84090855	      7.43196213	    -16.06624456	    -19.77895536	     24.30970192	     47.90557728	      0.00000000	      0.00000000	     19.08830566	    -42.35078666	    -20.53579491	     47.59830782	     47.53369993	      0.00000000	      0.00000000
